<svg xmlns="http://www.w3.org/2000/svg" xmlns:xlink="http://www.w3.org/1999/xlink" width="90" height="90" preserveAspectRatio="xMidYMid meet" version="1.0" viewBox="0 0 68.25 68.25" zoomAndPan="magnify"><defs><clipPath id="Infinity"><path d="M 3.835938 3.835938 L 63.183594 3.835938 L 63.183594 63.183594 L 3.835938 63.183594 Z M 3.835938 3.835938" clip-rule="nonzero"/></clipPath></defs><g clip-path="url(#13e6755240)"><path fill="#fefefe" fill-opacity="1" fill-rule="nonzero" d="M 48.492188 3.835938 L 18.683594 3.835938 C 10.460938 3.835938 3.835938 10.460938 3.835938 18.683594 L 3.835938 48.605469 C 3.835938 56.828125 10.460938 63.453125 18.683594 63.453125 L 48.492188 63.453125 C 56.714844 63.453125 63.453125 56.828125 63.453125 48.605469 L 63.453125 18.683594 C 63.453125 10.460938 56.714844 3.835938 48.492188 3.835938 Z M 33.53125 48.71875 C 25.308594 48.71875 18.570312 41.980469 18.570312 33.757812 C 18.570312 25.535156 25.308594 18.796875 33.53125 18.796875 C 41.753906 18.796875 48.492188 25.535156 48.492188 33.757812 C 48.492188 41.980469 41.867188 48.71875 33.53125 48.71875 Z M 53.746094 16.058594 C 52.261719 16.058594 51.230469 15.03125 51.230469 13.546875 C 51.230469 12.175781 52.375 11.03125 53.746094 11.03125 C 55 11.03125 56.257812 12.175781 56.257812 13.546875 C 56.257812 14.914062 55.113281 16.058594 53.746094 16.058594 Z M 53.746094 16.058594"/></g></svg>